# xmcd CD database file
#
# Track frame offsets:
#	150
#	13278
#	25906
#	42776
#	54968
#	71129
#	80624
#	96369
#	110041
#	123787
#	137315
#	148677
#	160514
#	175949
#	190886
#	206960
#
# Disc length: 2900 seconds
#
# Revision: 0
# Processed by: cddbd v1.5.1PL0 Copyright (c) Steve Scherf et al.
# Submitted via: CDex 1.51
#
DISCID=df0b5210
DTITLE=Lynn Anderson - Most famous Hits ( The Album)
DYEAR=2003
DGENRE=Country
TTITLE0=Rose Garden
TTITLE1=Top of the world
TTITLE2=Blue Bayou
TTITLE3=Stand by your man
TTITLE4=When I dream
TTITLE5=Snowbird
TTITLE6=You needed me
TTITLE7=Two doors down
TTITLE8=Paradise
TTITLE9=Talking in your sleep
TTITLE10=Listen to a country song
TTITLE11=Rodeo Cowboy
TTITLE12=I was country, when country wasn't cool
TTITLE13=Desperado
TTITLE14=The devil went down to
TTITLE15=Heartbreak
EXTD=YEAR: 2003
EXTT0=
EXTT1=
EXTT2=
EXTT3=
EXTT4=
EXTT5=
EXTT6=
EXTT7=
EXTT8=
EXTT9=
EXTT10=
EXTT11=
EXTT12=
EXTT13=
EXTT14=
EXTT15=
PLAYORDER=
